<svg width="174" height="98" viewBox="0 0 174 98" fill="none" xmlns="http://www.w3.org/2000/svg">
<path d="M173.063 0H0.220947V97.2251H173.063V0Z" fill="#212121"/>
<path opacity="0.2" d="M95.8264 51.4598C100.9 46.3865 100.9 38.1609 95.8264 33.0875C90.7531 28.0142 82.5275 28.0142 77.4542 33.0875C72.3808 38.1609 72.3808 46.3865 77.4542 51.4598C82.5275 56.5332 90.7531 56.5332 95.8264 51.4598Z" fill="white"/>
<path d="M93.4905 42.2743L82.6889 35.1763C82.7046 45.8784 82.6889 40.6242 82.6889 49.3724L93.4905 42.2743Z" fill="white"/>
<path d="M173.063 78.4822H0.220947V97.2252H173.063V78.4822Z" fill="url(#paint0_linear)"/>
<path d="M17.466 87.8535L10.6036 83.3433C10.6141 90.1375 10.6036 86.8059 10.6036 92.3586L17.466 87.8535Z" fill="white"/>
<path d="M38.6226 91.96L35.9458 90.2051C35.951 92.8557 35.9458 91.5566 35.9458 93.7201L38.6226 91.96Z" fill="white"/>
<path d="M39.0781 90.2053H38.5752V93.7203H39.0781V90.2053Z" fill="white"/>
<path d="M25.2644 91.9601L27.9412 93.7149C27.936 91.0643 27.9412 92.3634 27.9412 90.2L25.2644 91.9601Z" fill="white"/>
<path d="M24.8063 93.7195H25.3092V90.2045H24.8063V93.7195Z" fill="white"/>
<path d="M137.722 83.7356H24.593V84.8042H137.722V83.7356Z" fill="#525252"/>
<path d="M58.1661 83.7356H24.593V84.8042H58.1661V83.7356Z" fill="url(#paint1_linear)"/>
<path d="M59.5916 84.2703C59.5916 85.0613 58.9525 85.7056 58.1563 85.7056C57.3653 85.7056 56.7209 85.0665 56.7209 84.2703C56.7209 83.4793 57.36 82.835 58.1563 82.835C58.9473 82.835 59.5916 83.4793 59.5916 84.2703Z" fill="white"/>
<path d="M58.1557 86.1717C57.108 86.1717 56.2489 85.3179 56.2489 84.2649C56.2489 83.2173 57.1028 82.3582 58.1557 82.3582C59.2034 82.3582 60.0625 83.212 60.0625 84.2649C60.0625 85.3179 59.2086 86.1717 58.1557 86.1717ZM58.1557 83.3063C57.6266 83.3063 57.1971 83.7359 57.1971 84.2702C57.1971 84.7993 57.6266 85.2341 58.1557 85.2341C58.6848 85.2341 59.1143 84.8045 59.1143 84.2702C59.1195 83.7359 58.69 83.3063 58.1557 83.3063Z" fill="url(#paint2_linear)"/>
<path d="M49.2307 90.2053L47.5282 91.4468V92.4788L49.2307 93.7203C49.2254 91.0697 49.2307 92.3688 49.2307 90.2053Z" fill="white"/>
<path d="M47.0901 92.8184H47.9858V91.1054H47.0901V92.8184Z" fill="white"/>
<path d="M50.3197 93.6777C50.2358 93.6777 50.1625 93.6305 50.1258 93.5519C50.0787 93.4472 50.1311 93.3215 50.2358 93.2796C50.4035 93.2062 50.5554 93.1067 50.6863 92.9757C50.8173 92.8448 50.9221 92.6928 50.9902 92.5252C51.0635 92.3524 51.1002 92.1638 51.1002 91.9699C51.1002 91.7761 51.0635 91.5928 50.9902 91.4147C50.9168 91.247 50.8173 91.0951 50.6863 90.9642C50.5554 90.8332 50.4035 90.7284 50.2358 90.6603C50.1311 90.6132 50.0787 90.4927 50.1258 90.3879C50.173 90.2832 50.2935 90.2308 50.3982 90.2779C50.6182 90.3722 50.8173 90.5032 50.9849 90.6708C51.1526 90.8384 51.2888 91.0375 51.3778 91.2575C51.4721 91.4828 51.5245 91.729 51.5245 91.9752C51.5245 92.2214 51.4773 92.4676 51.3778 92.6928C51.2835 92.9129 51.1526 93.1119 50.9849 93.2796C50.8173 93.4472 50.6182 93.5834 50.3982 93.6724C50.3773 93.6724 50.3458 93.6777 50.3197 93.6777Z" fill="white"/>
<path d="M49.9267 92.8344C49.8481 92.8344 49.78 92.7873 49.7433 92.7139C49.7014 92.6144 49.7486 92.4992 49.8481 92.4573C49.911 92.4311 49.9686 92.3892 50.021 92.342C50.0681 92.2949 50.11 92.2372 50.1362 92.1691C50.1624 92.101 50.1781 92.033 50.1781 91.9596C50.1781 91.8863 50.1624 91.8182 50.1362 91.7501C50.11 91.6872 50.0681 91.6296 50.021 91.5772C49.9686 91.5248 49.911 91.4882 49.8481 91.462C49.7486 91.4201 49.7014 91.3048 49.7433 91.2053C49.7852 91.1057 49.9005 91.0586 50 91.1005C50.11 91.1477 50.2096 91.2158 50.2934 91.2996C50.3772 91.3834 50.4453 91.4829 50.4924 91.5929C50.5396 91.7082 50.5658 91.8286 50.5658 91.9544C50.5658 92.0801 50.5396 92.2006 50.4924 92.3158C50.4453 92.4258 50.3772 92.5254 50.2934 92.6092C50.2096 92.693 50.11 92.7611 50 92.8082C49.9791 92.8292 49.9529 92.8344 49.9267 92.8344Z" fill="white"/>
<path d="M164.398 93.595H163.387V94.0979H164.901V92.584H164.398V93.595Z" fill="white"/>
<path d="M161.134 92.584H160.626V94.0979H162.14V93.595H161.134V92.584Z" fill="white"/>
<path d="M160.627 91.343H161.135V90.332H162.14V89.8291H160.627V91.343Z" fill="white"/>
<path d="M163.387 89.8286V90.3315H164.398V91.3425H164.901V89.8286H163.387Z" fill="white"/>
<path d="M153.925 91.5942C154.114 91.5576 154.297 91.5314 154.501 91.5157V92.4062C154.297 92.3905 154.114 92.3643 153.925 92.3276L153.642 93.0034C153.805 93.1134 153.951 93.2234 154.103 93.3543L153.475 93.983C153.344 93.8258 153.228 93.6844 153.124 93.522L152.448 93.8049C152.485 93.9934 152.511 94.1768 152.526 94.3811H151.636C151.652 94.1768 151.678 93.9934 151.714 93.8049L151.039 93.522C150.929 93.6844 150.819 93.831 150.688 93.983L150.059 93.3543C150.216 93.2234 150.358 93.1081 150.52 93.0034L150.237 92.3276C150.049 92.3643 149.865 92.3905 149.661 92.4062V91.5157C149.865 91.5314 150.049 91.5576 150.237 91.5942L150.52 90.9185C150.358 90.8085 150.211 90.6985 150.059 90.5675L150.688 89.9389C150.819 90.096 150.934 90.2375 151.039 90.3999L151.714 90.117C151.678 89.9284 151.652 89.7451 151.636 89.5408H152.526C152.511 89.7451 152.485 89.9284 152.448 90.117L153.124 90.3999C153.234 90.2375 153.344 90.0908 153.475 89.9389L154.103 90.5675C153.946 90.6985 153.805 90.8137 153.642 90.9185L153.925 91.5942ZM152.081 90.887C151.489 90.887 151.007 91.369 151.007 91.9609C151.007 92.5529 151.489 93.0348 152.081 93.0348C152.673 93.0348 153.155 92.5529 153.155 91.9609C153.155 91.369 152.678 90.887 152.081 90.887Z" fill="white"/>
<path d="M143.685 85.3541C143.528 85.2546 143.403 85.1027 143.313 84.9088C143.224 84.715 143.177 84.4845 143.177 84.2174C143.177 83.9502 143.224 83.7197 143.313 83.5259C143.403 83.3321 143.528 83.1854 143.685 83.0806C143.843 82.9811 144.021 82.9287 144.225 82.9287C144.424 82.9287 144.607 82.9811 144.764 83.0806C144.922 83.1802 145.047 83.3321 145.136 83.5259C145.225 83.7197 145.273 83.9502 145.273 84.2174C145.273 84.4845 145.225 84.715 145.136 84.9088C145.047 85.1027 144.922 85.2546 144.764 85.3541C144.607 85.4536 144.424 85.506 144.225 85.506C144.021 85.506 143.843 85.4536 143.685 85.3541ZM144.649 84.8774C144.754 84.7307 144.806 84.5055 144.806 84.2121C144.806 83.9188 144.754 83.6988 144.649 83.5468C144.544 83.4002 144.403 83.3268 144.225 83.3268C144.047 83.3268 143.905 83.4002 143.806 83.5468C143.701 83.6935 143.649 83.9135 143.649 84.2121C143.649 84.5055 143.701 84.7255 143.806 84.8774C143.911 85.0241 144.052 85.0974 144.225 85.0974C144.403 85.1027 144.544 85.0241 144.649 84.8774Z" fill="white"/>
<path d="M147.153 84.2324C147.274 84.3634 147.337 84.5205 147.337 84.7143C147.337 84.861 147.3 84.992 147.227 85.1125C147.153 85.2329 147.043 85.3272 146.891 85.3953C146.739 85.4634 146.561 85.5001 146.347 85.5001C146.169 85.5001 145.996 85.4739 145.828 85.4215C145.66 85.3692 145.519 85.3011 145.404 85.2068L145.603 84.8453C145.692 84.9239 145.802 84.9815 145.933 85.0287C146.064 85.0706 146.195 85.0967 146.336 85.0967C146.499 85.0967 146.629 85.0653 146.724 84.9972C146.818 84.9291 146.865 84.8348 146.865 84.7196C146.865 84.6043 146.818 84.5101 146.729 84.4472C146.64 84.3791 146.504 84.3477 146.32 84.3477H146.09V84.0281L146.661 83.3524H145.519V82.9595H147.227V83.2685L146.619 83.9914C146.855 84.0229 147.028 84.1015 147.153 84.2324Z" fill="white"/>
<path d="M147.709 84.0444C147.651 83.9867 147.625 83.9186 147.625 83.8296C147.625 83.7405 147.651 83.6672 147.709 83.6148C147.766 83.5572 147.835 83.531 147.918 83.531C148.002 83.531 148.07 83.5572 148.128 83.6148C148.186 83.6672 148.212 83.7405 148.212 83.8296C148.212 83.9134 148.186 83.9867 148.128 84.0444C148.07 84.102 148.002 84.1282 147.918 84.1282C147.84 84.1282 147.766 84.102 147.709 84.0444ZM147.709 85.4116C147.651 85.354 147.625 85.2859 147.625 85.1968C147.625 85.1078 147.651 85.0344 147.709 84.982C147.766 84.9297 147.835 84.8982 147.918 84.8982C148.002 84.8982 148.07 84.9244 148.128 84.982C148.186 85.0344 148.212 85.1078 148.212 85.1968C148.212 85.2806 148.186 85.354 148.128 85.4116C148.07 85.4692 148.002 85.4954 147.918 85.4954C147.84 85.4954 147.766 85.464 147.709 85.4116Z" fill="white"/>
<path d="M150.753 84.8983H150.307V85.4693H149.857V84.8983H148.479V84.5735L149.715 82.9548H150.213L149.05 84.5002H149.872V83.9973H150.313V84.5002H150.758V84.8983H150.753Z" fill="white"/>
<path d="M152.68 82.9602V83.2693L151.706 85.4641H151.208L152.151 83.3478H151.166V83.7721H150.731V82.9497H152.68V82.9602Z" fill="white"/>
<path d="M154.869 82.4519H155.273L154.089 85.8254H153.685L154.869 82.4519Z" fill="white"/>
<path d="M157.138 82.9595V85.4687H156.671V83.3524H156.142V82.9595H157.138Z" fill="white"/>
<path d="M158.148 85.3541C157.991 85.2546 157.865 85.1027 157.776 84.9088C157.687 84.715 157.64 84.4845 157.64 84.2174C157.64 83.9502 157.687 83.7197 157.776 83.5259C157.865 83.3321 157.991 83.1854 158.148 83.0806C158.305 82.9811 158.483 82.9287 158.687 82.9287C158.886 82.9287 159.07 82.9811 159.227 83.0806C159.384 83.1802 159.51 83.3321 159.599 83.5259C159.688 83.7197 159.735 83.9502 159.735 84.2174C159.735 84.4845 159.688 84.715 159.599 84.9088C159.51 85.1027 159.384 85.2546 159.227 85.3541C159.07 85.4536 158.886 85.506 158.687 85.506C158.483 85.506 158.305 85.4536 158.148 85.3541ZM159.106 84.8774C159.211 84.7307 159.264 84.5055 159.264 84.2121C159.264 83.9188 159.211 83.6988 159.106 83.5468C159.002 83.4002 158.86 83.3268 158.682 83.3268C158.504 83.3268 158.363 83.4002 158.263 83.5468C158.158 83.6935 158.106 83.9135 158.106 84.2121C158.106 84.5055 158.158 84.7255 158.263 84.8774C158.368 85.0241 158.509 85.0974 158.682 85.0974C158.86 85.1027 159.002 85.0241 159.106 84.8774Z" fill="white"/>
<path d="M160.118 84.0444C160.06 83.9867 160.034 83.9186 160.034 83.8296C160.034 83.7405 160.06 83.6672 160.118 83.6148C160.176 83.5572 160.244 83.531 160.327 83.531C160.411 83.531 160.479 83.5572 160.537 83.6148C160.595 83.6672 160.621 83.7405 160.621 83.8296C160.621 83.9134 160.595 83.9867 160.537 84.0444C160.479 84.102 160.411 84.1282 160.327 84.1282C160.249 84.1282 160.176 84.102 160.118 84.0444ZM160.118 85.4116C160.06 85.354 160.034 85.2859 160.034 85.1968C160.034 85.1078 160.06 85.0344 160.118 84.982C160.176 84.9297 160.244 84.8982 160.327 84.8982C160.411 84.8982 160.479 84.9244 160.537 84.982C160.595 85.0344 160.621 85.1078 160.621 85.1968C160.621 85.2806 160.595 85.354 160.537 85.4116C160.479 85.4692 160.411 85.4954 160.327 85.4954C160.249 85.4954 160.176 85.464 160.118 85.4116Z" fill="white"/>
<path d="M161.434 85.3541C161.277 85.2546 161.151 85.1027 161.062 84.9088C160.973 84.715 160.926 84.4845 160.926 84.2174C160.926 83.9502 160.973 83.7197 161.062 83.5259C161.151 83.3321 161.277 83.1854 161.434 83.0806C161.591 82.9811 161.769 82.9287 161.973 82.9287C162.172 82.9287 162.356 82.9811 162.513 83.0806C162.67 83.1802 162.796 83.3321 162.885 83.5259C162.974 83.7197 163.021 83.9502 163.021 84.2174C163.021 84.4845 162.974 84.715 162.885 84.9088C162.796 85.1027 162.67 85.2546 162.513 85.3541C162.356 85.4536 162.172 85.506 161.973 85.506C161.769 85.506 161.591 85.4536 161.434 85.3541ZM162.398 84.8774C162.502 84.7307 162.555 84.5055 162.555 84.2121C162.555 83.9188 162.502 83.6988 162.398 83.5468C162.293 83.4002 162.152 83.3268 161.973 83.3268C161.795 83.3268 161.654 83.4002 161.554 83.5468C161.45 83.6935 161.397 83.9135 161.397 84.2121C161.397 84.5055 161.45 84.7255 161.554 84.8774C161.659 85.0241 161.801 85.0974 161.973 85.0974C162.152 85.1027 162.293 85.0241 162.398 84.8774Z" fill="white"/>
<path d="M163.843 85.3541C163.686 85.2546 163.56 85.1027 163.471 84.9088C163.382 84.715 163.335 84.4845 163.335 84.2174C163.335 83.9502 163.382 83.7197 163.471 83.5259C163.56 83.3321 163.686 83.1854 163.843 83.0806C164 82.9811 164.178 82.9287 164.383 82.9287C164.582 82.9287 164.765 82.9811 164.922 83.0806C165.079 83.1802 165.205 83.3321 165.294 83.5259C165.383 83.7197 165.43 83.9502 165.43 84.2174C165.43 84.4845 165.383 84.715 165.294 84.9088C165.205 85.1027 165.079 85.2546 164.922 85.3541C164.765 85.4536 164.582 85.506 164.383 85.506C164.184 85.506 164 85.4536 163.843 85.3541ZM164.807 84.8774C164.912 84.7307 164.964 84.5055 164.964 84.2121C164.964 83.9188 164.912 83.6988 164.807 83.5468C164.702 83.4002 164.561 83.3268 164.383 83.3268C164.204 83.3268 164.063 83.4002 163.964 83.5468C163.859 83.6935 163.806 83.9135 163.806 84.2121C163.806 84.5055 163.859 84.7255 163.964 84.8774C164.068 85.0241 164.21 85.0974 164.383 85.0974C164.561 85.1027 164.702 85.0241 164.807 84.8774Z" fill="white"/>
<defs>
<linearGradient id="paint0_linear" x1="-5.99958" y1="78.0485" x2="0.948727" y2="121.99" gradientUnits="userSpaceOnUse">
<stop stop-color="#8562BB"/>
<stop offset="1" stop-color="#461692"/>
</linearGradient>
<linearGradient id="paint1_linear" x1="24.593" y1="83.9837" x2="39.3818" y2="101.115" gradientUnits="userSpaceOnUse">
<stop stop-color="#F98905"/>
<stop offset="1" stop-color="#FF7628"/>
</linearGradient>
<linearGradient id="paint2_linear" x1="56.2489" y1="83.2434" x2="60.1777" y2="83.3883" gradientUnits="userSpaceOnUse">
<stop stop-color="#F98905"/>
<stop offset="1" stop-color="#FF7628"/>
</linearGradient>
</defs>
</svg>
